<?xml version="1.0" standalone="no"?>
<!DOCTYPE svg PUBLIC "-//W3C//DTD SVG 1.1//EN" "http://www.w3.org/Graphics/SVG/1.1/DTD/svg11.dtd" >
<svg>
<metadata>
Created by FontForge 20090622 at Mon Dec 14 15:51:53 2015
 By deploy user
EeveSomepx
</metadata>
<defs>
<font id="Flailed" horiz-adv-x="448" >
  <font-face 
    font-family="Flailed"
    font-weight="500"
    font-stretch="normal"
    units-per-em="1024"
    panose-1="2 0 6 3 0 0 0 0 0 0"
    ascent="768"
    descent="-256"
    x-height="576"
    cap-height="768"
    bbox="0 -192 896 768"
    underline-thickness="51"
    underline-position="-103"
    unicode-range="U+0020-U+00B6"
  />
<missing-glyph horiz-adv-x="374" 
d="M34 0v682h272v-682h-272zM68 34h204v614h-204v-614z" />
    <glyph glyph-name=".notdef" horiz-adv-x="374" 
d="M34 0v682h272v-682h-272zM68 34h204v614h-204v-614z" />
    <glyph glyph-name=".null" horiz-adv-x="0" 
 />
    <glyph glyph-name="nonmarkingreturn" horiz-adv-x="341" 
 />
    <glyph glyph-name="space" unicode=" " horiz-adv-x="320" 
 />
    <glyph glyph-name="exclam" unicode="!" horiz-adv-x="320" 
d="M128 0h-64v64v64h64h64v-64v-64h-64zM128 192h-64v64h-64v64v64v64v64v64v64v64h64v64h64h64v-64h64v-64v-64v-64v-64v-64v-64v-64h-64v-64h-64z" />
    <glyph glyph-name="quotedbl" unicode="&#x22;" horiz-adv-x="384" 
d="M192 320v64h64v-64h-64zM192 384h-64h-64v64h-64v64v64v64v64h64v64h64h64v-64h64h64v-64v-64h-64v-64h-64v-64v-64zM128 448v64v64h-64v-64v-64h64z" />
    <glyph glyph-name="numbersign" unicode="#" horiz-adv-x="512" 
d="M320 128h-64v64h-64v-64h-64h-64v64h-64v64v64h64v64v64h-64v64v64h64v64h64h64v-64h64v64h64h64v-64h64v-64v-64h-64v-64v-64h64v-64v-64h-64v-64h-64zM256 320v64v64h-64v-64v-64h64z" />
    <glyph glyph-name="dollar" unicode="$" 
d="M192 -64v64v64h-64h-64v64h-64v64v64h64v64h-64v64v64v64v64h64v64h64h64v64v64h64v-64v-64h64v-64h64v-64v-64h-64v64h-64v-64h64v-64h64v-64v-64v-64v-64h-64v-64h-64v-64v-64h-64zM128 192h64v64h-64h-64v-64h64zM192 448v64h-64v-64h64z" />
    <glyph glyph-name="percent" unicode="%" 
d="M320 192h-64v64v64h64h64v-64v-64h-64zM64 192h-64v64v64h64v64h64v64h64v64h64v64h64h64v-64v-64h-64v-64h-64v-64h-64v-64h-64v-64h-64zM128 448h-64h-64v64v64h64h64v-64v-64z" />
    <glyph glyph-name="ampersand" unicode="&#x26;" 
d="M192 -64v64v64h-64h-64v64h-64v64v64v64v64v64v64v64h64v64h64h64v64v64h64v-64v-64h64v-64h64v-64v-64v-64v-64h-64v-64h-64h-64h-64v-64h64h64h64v64h64v-64v-64h-64v-64h-64v-64v-64h-64zM192 384h64v64h64v64h-64h-64v-64h-64v-64h64z" />
    <glyph glyph-name="quotesingle" unicode="'" horiz-adv-x="256" 
d="M64 384v64h64v-64h-64zM64 448h-64v64v64v64v64h64v64h64h64v-64v-64h-64v-64h-64v-64v-64z" />
    <glyph glyph-name="parenleft" unicode="(" horiz-adv-x="384" 
d="M256 0h-64v64h-64v64h-64v64h-64v64v64v64v64v64v64h64v64h64v64h64v64h64h64v-64v-64v-64h-64v-64h-64v-64h-64v-64v-64h64v-64h64v-64h64v-64v-64v-64h-64z" />
    <glyph glyph-name="parenright" unicode=")" horiz-adv-x="384" 
d="M64 0h-64v64v64v64h64v64h64v64h64v64v64h-64v64h-64v64h-64v64v64v64h64h64v-64h64v-64h64v-64h64v-64v-64v-64v-64v-64v-64h-64v-64h-64v-64h-64v-64h-64z" />
    <glyph glyph-name="asterisk" unicode="*" horiz-adv-x="320" 
d="M192 256v64h64v-64h-64zM0 256v64h64v-64h-64zM192 320h-64h-64v64v64h64h64v-64v-64zM192 448v64h64v-64h-64zM64 448h-64v64h64v-64z" />
    <glyph glyph-name="plus" unicode="+" horiz-adv-x="512" 
d="M256 128h-64h-64v64v64h-64h-64v64v64v64v64h64h64v64v64h64h64h64v-64v-64h64h64v-64v-64v-64v-64h-64h-64v-64v-64h-64z" />
    <glyph glyph-name="comma" unicode="," horiz-adv-x="320" 
d="M64 -128h-64v64h64v64h64v64v64h64h64v-64v-64h-64v-64h-64v-64h-64z" />
    <glyph glyph-name="hyphen" unicode="-" horiz-adv-x="512" 
d="M384 256h-64h-64h-64h-64h-64h-64v64v64v64v64h64h64h64h64h64h64h64v-64v-64v-64v-64h-64z" />
    <glyph glyph-name="period" unicode="." horiz-adv-x="192" 
d="M64 0h-64v64v64h64h64v-64v-64h-64z" />
    <glyph glyph-name="slash" unicode="/" horiz-adv-x="512" 
d="M64 192h-64v64v64v64h64v64h64v64h64v64h64v64h64h64h64v-64v-64h-64v-64h-64v-64h-64v-64h-64v-64h-64v-64h-64z" />
    <glyph glyph-name="zero" unicode="0" 
d="M256 0h-64h-64h-64v64h-64v64v64v64v64v64v64v64v64v64v64h64v64h64h64h64h64v-64h64v-64v-64v-64v-64v-64v-64v-64v-64v-64v-64h-64v-64h-64zM256 128v64v64v64v64v64v64v64h-64v64h-64v-64v-64v-64v-64v-64v-64v-64h64v-64h64z" />
    <glyph glyph-name="one" unicode="1" 
d="M0 576v64v64h64v64h64h64h64h64v-64v-64v-64v-64v-64v-64v-64v-64v-64v-64v-64h64v-64h-64h-64h-64h-64h-64h-64v64h64v64h64v64v64v64v64v64v64v64v64h-64v-64h-64z" />
    <glyph glyph-name="two" unicode="2" 
d="M0 576v64v64h64v64h64h64h64h64v-64h64v-64v-64v-64v-64v-64v-64h-64v-64h-64v-64v-64h64v64h64v-64v-64h-64v-64h-64h-64h-64h-64h-64v64v64v64h64v64h64v64h64v64h64v64v64v64h-64v64h-64h-64v-64h-64z" />
    <glyph glyph-name="three" unicode="3" 
d="M0 576v64v64h64v64h64h64h64h64v-64h64v-64v-64v-64v-64v-64v-64v-64v-64v-64v-64h-64v-64h-64h-64h-64h-64v64h-64v64v64h64v-64h64h64v64h64v64v64h-64h-64v64h-64v64h64h64h64v64v64h-64v64h-64h-64v-64h-64z" />
    <glyph glyph-name="four" unicode="4" 
d="M256 0h-64v64v64v64v64v64h-64h-64v64h-64v64v64v64v64v64h64v64h64h64h64h64v-64v-64v-64v-64h64v-64v-64h-64v-64v-64v-64v-64v-64v-64h-64zM192 448v64v64v64h-64v-64v-64v-64h64z" />
    <glyph glyph-name="five" unicode="5" 
d="M320 576v64h-64v-64h-64v-64v-64h64h64v-64h64v-64v-64v-64v-64v-64h-64v-64h-64h-64h-64h-64v64h-64v64v64h64v-64h64h64v64h64v64v64h-64h-64v64h-64v64h-64v64v64v64v64h64v64h64h64h64h64v-64h64v-64v-64h-64z" />
    <glyph glyph-name="six" unicode="6" 
d="M320 576v64h-64h-64v-64h-64v-64v-64h64h64h64v-64h64v-64v-64v-64v-64h-64v-64h-64v-64h-64h-64h-64v64h-64v64v64v64v64v64v64v64v64v64v64h64v64h64h64h64h64v-64h64v-64v-64h-64zM192 192v64h64v64h-64h-64v-64v-64h64z" />
    <glyph glyph-name="seven" unicode="7" 
d="M0 576v64v64h64v64h64h64h64h64v-64h64v-64v-64v-64v-64v-64v-64v-64v-64v-64v-64v-64h-64h-64v64v64v64v64v64h-64h-64v64h-64v64h64h64h64v64v64h-64v64h-64h-64v-64h-64z" />
    <glyph glyph-name="eight" unicode="8" 
d="M256 0h-64h-64v64h-64v64h-64v64v64v64v64h64v64h-64v64v64v64v64h64v64h64h64h64h64v-64h64v-64v-64v-64v-64h-64v-64h64v-64v-64v-64v-64v-64h-64v-64h-64zM256 192v64v64h-64h-64v-64h64v-64h64zM192 448v64h64v64v64h-64v-64h-64v-64v-64h64z" />
    <glyph glyph-name="nine" unicode="9" 
d="M256 0h-64h-64h-64v64h-64v64v64h64v-64h64h64v64h64v64v64h-64h-64h-64v64h-64v64v64v64v64h64v64h64v64h64h64h64v-64h64v-64v-64v-64v-64v-64v-64v-64v-64v-64v-64h-64v-64h-64zM192 448h64v64v64h-64v-64h-64v-64h64z" />
    <glyph glyph-name="colon" unicode=":" horiz-adv-x="192" 
d="M64 0h-64v64v64h64h64v-64v-64h-64zM64 192h-64v64v64h64h64v-64v-64h-64z" />
    <glyph glyph-name="semicolon" unicode=";" horiz-adv-x="320" 
d="M64 -128h-64v64h64v64h64v64v64h64h64v-64v-64h-64v-64h-64v-64h-64zM192 192h-64v64v64h64h64v-64v-64h-64z" />
    <glyph glyph-name="less" unicode="&#x3c;" horiz-adv-x="384" 
d="M256 64v64h-64v64h-64v64h-64v64h-64v64v64h64v64h64v64h64v64h64v64h64v-64v-64v-64h-64v-64v-64v-64v-64h64v-64v-64v-64h-64z" />
    <glyph glyph-name="equal" unicode="=" horiz-adv-x="512" 
d="M384 192h-64h-64h-64h-64h-64h-64v64v64h64h64h64h64h64h64h64v-64v-64h-64zM384 448h-64h-64h-64h-64h-64h-64v64v64h64h64h64h64h64h64h64v-64v-64h-64z" />
    <glyph glyph-name="greater" unicode="&#x3e;" horiz-adv-x="384" 
d="M0 64v64v64v64h64v64v64v64v64h-64v64v64v64h64v-64h64v-64h64v-64h64v-64h64v-64v-64h-64v-64h-64v-64h-64v-64h-64v-64h-64z" />
    <glyph glyph-name="question" unicode="?" horiz-adv-x="640" 
d="M256 0h-64v64v64h64h64v-64v-64h-64zM256 192h-64v64v64h64v64h64v64h64v64v64h-64h-64h-64v-64h-64v-64h-64h-64v64v64v64v64h64v64h64h64h64h64h64h64h64v-64h64v-64v-64v-64v-64h-64v-64h-64v-64h-64v-64h-64v-64h-64z" />
    <glyph glyph-name="at" unicode="@" horiz-adv-x="832" 
d="M576 -128h-64v64h-64v-64h-64h-64h-64h-64v64h-64v64h-64v64h-64v64v64v64v64v64v64v64v64h64v64h64v64h64v64h64h64h64h64h64h64v-64h64v-64h64v-64h64v-64v-64v-64v-64v-64v-64v-64v-64v-64h-64v-64h-64v-64h-64zM576 -64v64h-64v-64h64zM384 0h64v64h-64h-64h-64v64
h-64v64v64v64h64v64h-64v64v64h64v64h64h64h64h64v-64h64v-64v-64v-64v-64v-64v-64v-64v-64h64v64v64v64v64v64v64v64v64v64h-64v64h-64h-64h-64h-64h-64h-64v-64h-64v-64v-64v-64v-64v-64v-64v-64v-64h64v-64h64h64h64zM384 192h64v64h-64h-64v-64h64zM384 384h64v64h-64
h-64h-64v-64h64h64z" />
    <glyph glyph-name="A" unicode="A" horiz-adv-x="960" 
d="M832 0h-64h-64h-64h-64h-64v64h64v64v64h-64v64h-64h-64v-64h-64v-64v-64h64v-64h-64h-64h-64h-64h-64h-64v64h64v64v64v64v64v64v64v64v64v64v64h64v64h64h64h64h64h64h64h64h64h64h64v-64h64v-64v-64v-64v-64v-64v-64v-64v-64v-64v-64h64v-64h-64zM448 384h64v64h64v64
v64h-64v64h-64h-64v-64h-64v-64v-64h64v-64h64z" />
    <glyph glyph-name="B" unicode="B" horiz-adv-x="896" 
d="M704 0h-64h-64h-64h-64h-64h-64h-64h-64h-64h-64h-64v64h64v64v64v64v64v64v64v64v64v64v64h-64v64h64h64h64h64h64h64h64h64h64h64h64h64v-64h64v-64v-64v-64v-64h-64v-64h-64v-64h64v-64h64v-64v-64v-64h-64v-64h-64zM448 64h64v64h64v64v64h-64v64h-64h-64v-64h-64
v-64v-64h64v-64h64zM448 384h64v64h64v64v64h-64v64h-64h-64v-64h-64v-64v-64h64v-64h64z" />
    <glyph glyph-name="C" unicode="C" horiz-adv-x="896" 
d="M704 0h-64h-64h-64h-64h-64h-64h-64h-64h-64v64h-64v64h-64v64v64v64v64v64v64v64v64h64v64h64v64h64h64h64h64h64h64h64h64h64h64v-64h64v-64v-64v-64h-64h-64v64h-64h-64h-64h-64h-64v-64h-64v-64h-64v-64v-64h64v-64h64v-64h64h64h64h64h64v64h64h64v-64v-64v-64h-64
v-64h-64z" />
    <glyph glyph-name="D" unicode="D" horiz-adv-x="896" 
d="M704 0h-64h-64h-64h-64h-64h-64h-64h-64h-64h-64h-64v64h64v64v64v64v64v64v64v64v64v64v64h-64v64h64h64h64h64h64h64h64h64h64h64h64h64v-64h64v-64v-64v-64v-64v-64v-64v-64v-64v-64v-64h-64v-64h-64zM448 192h64v64h64v64v64v64v64h-64v64h-64h-64v-64h-64v-64v-64
v-64v-64h64v-64h64z" />
    <glyph glyph-name="E" unicode="E" horiz-adv-x="896" 
d="M704 0h-64h-64h-64h-64h-64h-64h-64h-64h-64h-64h-64v64h64v64v64v64v64v64v64v64v64v64v64h-64v64h64h64h64h64h64h64h64h64h64h64h64h64h64v-64h-64v-64h-64h-64h-64h-64h-64h-64v-64h-64v-64v-64h64h64h64h64h64h64h64v-64h-64v-64h-64h-64h-64h-64h-64v-64h-64v-64
v-64h64h64h64h64h64h64h64h64v-64h-64v-64h-64z" />
    <glyph glyph-name="F" unicode="F" horiz-adv-x="896" 
d="M320 0h-64h-64h-64h-64h-64v64h64v64v64v64v64v64v64v64v64v64v64h-64v64h64h64h64h64h64h64h64h64h64h64h64h64h64v-64h-64v-64h-64h-64h-64h-64h-64h-64v-64h-64v-64v-64h64h64h64h64h64h64h64v-64h-64v-64h-64h-64h-64h-64h-64v-64h-64v-64v-64v-64h64v-64h-64z" />
    <glyph glyph-name="G" unicode="G" horiz-adv-x="896" 
d="M704 0h-64h-64h-64h-64h-64h-64h-64h-64h-64v64h-64v64h-64v64v64v64v64v64v64v64v64h64v64h64v64h64h64h64h64h64h64h64h64h64h64v-64h64v-64v-64v-64h-64h-64v64h-64h-64h-64h-64h-64v-64h-64v-64h-64v-64v-64h64v-64h64v-64h64h64h64v64h-64v64v64v64h64h64h64h64v-64
h64v-64v-64v-64v-64v-64h-64v-64h-64z" />
    <glyph glyph-name="H" unicode="H" horiz-adv-x="960" 
d="M832 0h-64h-64h-64h-64h-64v64h64v64v64v64h-64v64h-64h-64v-64h-64v-64v-64v-64h64v-64h-64h-64h-64h-64h-64h-64v64h64v64v64v64v64v64v64v64v64v64v64h-64v64h64h64h64h64h64h64v-64h-64v-64v-64v-64h64v-64h64h64v64h64v64v64v64h-64v64h64h64h64h64h64h64v-64h-64
v-64v-64v-64v-64v-64v-64v-64v-64v-64v-64h64v-64h-64z" />
    <glyph glyph-name="I" unicode="I" 
d="M320 0h-64h-64h-64h-64h-64v64v64h64v64v64v64v64v64v64v64v64v64h-64v64h64h64h64h64h64h64v-64h-64v-64v-64v-64v-64v-64v-64v-64v-64v-64h64v-64v-64h-64z" />
    <glyph glyph-name="J" unicode="J" horiz-adv-x="832" 
d="M576 0h-64h-64h-64h-64h-64h-64h-64h-64v64h-64v64v64v64v64v64v64h64v64h64h64h64v-64v-64h-64v-64v-64h64v-64h64h64v64h64v64v64v64v64v64v64v64h-64v64h64h64h64h64h64h64v-64h-64v-64v-64v-64v-64v-64v-64v-64v-64v-64v-64h-64v-64h-64z" />
    <glyph glyph-name="K" unicode="K" horiz-adv-x="960" 
d="M832 0h-64h-64h-64h-64h-64v64h64v64v64v64h-64v64h-64h-64v-64h-64v-64v-64v-64h64v-64h-64h-64h-64h-64h-64h-64v64h64v64v64v64v64v64v64v64v64v64v64h-64v64h64h64h64h64h64h64v-64h-64v-64v-64v-64h64v-64h64h64v64h64v64v64v64h-64v64h64h64h64h64h64h64v-64h-64
v-64v-64v-64v-64h-64v-64h-64v-64h64v-64h64v-64v-64v-64h64v-64h-64z" />
    <glyph glyph-name="L" unicode="L" horiz-adv-x="896" 
d="M704 0h-64h-64h-64h-64h-64h-64h-64h-64h-64h-64h-64v64h64v64v64v64v64v64v64v64v64v64v64h-64v64h64h64h64h64h64h64v-64h-64v-64v-64v-64v-64v-64v-64v-64h64v-64h64h64h64h64h64v64h64h64v-64v-64v-64h-64v-64h-64z" />
    <glyph glyph-name="M" unicode="M" horiz-adv-x="960" 
d="M768 0h-64v64v64v64v64v64v64v64v64v64h-64v-64h-64v-64v-64v-64v-64v-64v-64v-64h-64v-64h-64h-64v64v64v64v64v64v64v64v64v64h-64v-64h-64v-64v-64v-64v-64v-64v-64v-64h-64v-64h-64h-64h-64v64v64h64v64v64v64v64v64v64v64v64v64h-64v64h64h64h64v-64h64v64h64h64h64
h64v-64h64v64h64h64h64h64v-64h64v-64v-64v-64v-64v-64v-64v-64v-64v-64v-64h-64v-64h-64z" />
    <glyph glyph-name="N" unicode="N" horiz-adv-x="896" 
d="M704 0h-64h-64v64v64v64v64v64v64v64v64h-64v64h-64h-64v-64h-64v-64v-64v-64v-64v-64v-64v-64h-64v-64h-64h-64h-64h-64v64v64h64v64v64v64v64v64v64v64v64v64h-64v64h64h64h64h64h64h64h64h64h64h64h64h64v-64h64v-64v-64v-64v-64v-64v-64v-64v-64v-64v-64h-64v-64h-64
z" />
    <glyph glyph-name="O" unicode="O" horiz-adv-x="896" 
d="M640 0h-64h-64h-64h-64h-64h-64h-64h-64v64h-64v64h-64v64v64v64v64v64v64v64v64h64v64h64v64h64h64h64h64h64h64h64h64h64v-64h64v-64h64v-64v-64v-64v-64v-64v-64v-64v-64h-64v-64h-64v-64h-64zM448 192h64v64h64v64v64v64v64h-64v64h-64h-64h-64v-64h-64v-64v-64v-64
v-64h64v-64h64h64z" />
    <glyph glyph-name="P" unicode="P" horiz-adv-x="896" 
d="M320 0h-64h-64h-64h-64h-64v64h64v64v64v64v64v64v64v64v64v64v64h-64v64h64h64h64h64h64h64h64h64h64h64h64h64v-64h64v-64v-64v-64v-64v-64h-64v-64h-64v-64h-64h-64h-64h-64h-64v-64h-64v-64v-64h64v-64h-64zM448 384h64v64h64v64v64h-64v64h-64h-64v-64h-64v-64v-64
h64v-64h64z" />
    <glyph glyph-name="Q" unicode="Q" horiz-adv-x="960" 
d="M768 0h-64h-64h-64h-64h-64h-64h-64h-64h-64h-64v64h-64v64h-64v64v64v64v64v64v64v64v64h64v64h64v64h64h64h64h64h64h64h64h64v-64h64v-64h64v-64v-64v-64v-64v-64v-64v-64h64v64h64v-64v-64v-64h-64v-64h-64zM384 192h64v64h64v64v64v64v64h-64v64h-64h-64v-64h-64
v-64v-64v-64v-64h64v-64h64z" />
    <glyph glyph-name="R" unicode="R" horiz-adv-x="960" 
d="M832 0h-64h-64h-64h-64h-64v64h64v64v64h-64v64h-64h-64v-64h-64v-64v-64h64v-64h-64h-64h-64h-64h-64h-64v64h64v64v64v64v64v64v64v64v64v64v64h-64v64h64h64h64h64h64h64h64h64h64h64h64h64v-64h64v-64v-64v-64v-64v-64h-64v-64h-64v-64h64v-64h64v-64v-64h64v-64h-64
zM448 384h64v64h64v64v64h-64v64h-64h-64v-64h-64v-64v-64h64v-64h64z" />
    <glyph glyph-name="S" unicode="S" horiz-adv-x="832" 
d="M576 0h-64h-64h-64h-64h-64h-64h-64h-64v64h-64v64v64v64h64v-64h64v-64h64h64h64h64v64h64v64h-64h-64h-64h-64h-64v64h-64v64h-64v64v64v64v64h64v64h64v64h64h64h64h64h64h64h64h64h64v-64h64v-64v-64h-64h-64v64h-64h-64h-64h-64v-64h-64v-64h64v-64h64h64h64h64v-64
h64v-64h64v-64v-64v-64h-64v-64h-64v-64h-64z" />
    <glyph glyph-name="T" unicode="T" horiz-adv-x="960" 
d="M576 0h-64h-64h-64h-64h-64v64h64v64v64v64v64v64v64v64v64v64h-64h-64h-64h-64h-64v64h64v64h64h64h64h64h64h64h64h64h64h64h64h64h64v-64h-64v-64h-64h-64h-64h-64v-64v-64v-64v-64v-64v-64v-64v-64v-64h64v-64h-64z" />
    <glyph glyph-name="U" unicode="U" horiz-adv-x="896" 
d="M640 0h-64h-64h-64h-64h-64h-64h-64h-64v64h-64v64h-64v64v64v64v64v64v64v64v64v64h64v64h64h64h64h64v-64v-64v-64h-64v-64v-64v-64v-64v-64h64v-64h64h64h64v64h64v64v64v64v64v64h-64v64v64v64h64h64h64h64v-64h64v-64v-64v-64v-64v-64v-64v-64v-64v-64h-64v-64h-64
v-64h-64z" />
    <glyph glyph-name="V" unicode="V" horiz-adv-x="832" 
d="M512 0h-64h-64h-64h-64h-64v64h-64v64h-64v64h-64v64v64v64v64v64v64v64v64v64h64h64h64h64v-64v-64v-64v-64v-64v-64v-64v-64h64v-64h64h64v64h64v64v64v64v64v64v64v64v64h64h64h64v-64h64v-64v-64v-64v-64v-64v-64v-64v-64h-64v-64h-64v-64h-64v-64h-64z" />
    <glyph glyph-name="W" unicode="W" horiz-adv-x="896" 
d="M640 0h-64h-64h-64h-64h-64h-64h-64h-64v64h-64v64h-64v64v64v64v64v64v64v64v64v64v64h64h64h64v-64v-64v-64v-64v-64v-64v-64v-64h64v-64h64v64v64v64v64v64v64v64v64v64h64h64v-64h64v-64v-64v-64v-64v-64v-64v-64v-64h64v64h64v64v64v64v64v64v64v64v64h64h64v-64h64
v-64v-64v-64v-64v-64v-64v-64v-64v-64h-64v-64h-64v-64h-64z" />
    <glyph glyph-name="X" unicode="X" horiz-adv-x="960" 
d="M832 0h-64h-64h-64h-64h-64v64h64v64v64v64h-64v64h-64h-64v-64h-64v-64v-64v-64h64v-64h-64h-64h-64h-64h-64h-64v64h64v64v64v64h64v64h64v64h-64v64h-64v64v64v64v64h-64v64h64h64h64h64h64h64v-64h-64v-64v-64h64v-64h64h64v64h64v64v64h-64v64h64h64h64h64h64h64
v-64h-64v-64v-64v-64v-64h-64v-64h-64v-64h64v-64h64v-64v-64v-64h64v-64h-64z" />
    <glyph glyph-name="Y" unicode="Y" horiz-adv-x="960" 
d="M576 0h-64h-64h-64h-64h-64v64h64v64v64v64h-64v64h-64v64h-64v64h-64v64v64v64v64h-64v64h64h64h64h64h64h64v-64h-64v-64v-64v-64h64v-64h64h64v64h64v64v64v64h-64v64h64h64h64h64h64h64v-64h-64v-64v-64v-64v-64h-64v-64h-64v-64h-64v-64h-64v-64v-64v-64h64v-64h-64
z" />
    <glyph glyph-name="Z" unicode="Z" horiz-adv-x="832" 
d="M640 0h-64h-64h-64h-64h-64h-64h-64h-64h-64v64h-64v64v64v64h64v64h64v64h64v64h64v64h64v64h64v64h-64h-64h-64h-64v-64h-64h-64v64v64h64v64h64h64h64h64h64h64h64h64h64h64v-64h64v-64v-64h-64v-64h-64v-64h-64v-64h-64v-64h-64v-64h-64v-64h-64v-64h64h64h64h64h64
v64h64v64h64v-64v-64v-64h-64v-64h-64z" />
    <glyph glyph-name="bracketleft" unicode="[" horiz-adv-x="384" 
d="M256 0h-64h-64h-64h-64v64v64v64v64v64v64v64v64v64v64v64v64h64h64h64h64h64v-64v-64h-64h-64v-64v-64v-64v-64v-64v-64v-64v-64h64h64v-64v-64h-64z" />
    <glyph glyph-name="backslash" unicode="\" horiz-adv-x="512" 
d="M384 192h-64v64h-64v64h-64v64h-64v64h-64v64h-64v64v64h64h64h64v-64h64v-64h64v-64h64v-64h64v-64v-64v-64h-64z" />
    <glyph glyph-name="bracketright" unicode="]" horiz-adv-x="384" 
d="M256 0h-64h-64h-64h-64v64v64h64h64v64v64v64v64v64v64v64v64h-64h-64v64v64h64h64h64h64h64v-64v-64v-64v-64v-64v-64v-64v-64v-64v-64v-64v-64h-64z" />
    <glyph glyph-name="asciicircum" unicode="^" horiz-adv-x="384" 
d="M256 576h-64v64h-64v-64h-64h-64v64v64h64v64h64h64h64v-64h64v-64v-64h-64z" />
    <glyph glyph-name="underscore" unicode="_" horiz-adv-x="512" 
d="M384 -128h-64h-64h-64h-64h-64h-64v64v64h64h64h64h64h64h64h64v-64v-64h-64z" />
    <glyph glyph-name="grave" unicode="`" horiz-adv-x="256" 
d="M64 384v64h64v-64h-64zM128 448v64v64h-64v64h-64v64v64h64h64v-64h64v-64v-64v-64v-64h-64z" />
    <glyph glyph-name="a" unicode="a" 
d="M320 -64h-64v64h-64h-64h-64v64h-64v64v64v64v64h64v64h-64v64v64h64v64h64h64h64h64v-64h64v-64v-64v-64v-64v-64v-64v-64v-64v-64h-64zM192 128h64v64v64h-64h-64v-64v-64h64zM192 384h64v64h-64h-64h-64v-64h64h64z" />
    <glyph glyph-name="b" unicode="b" 
d="M64 -64h-64v64v64v64v64v64v64v64v64v64v64v64v64v64h64h64v-64v-64v-64v-64h64v64h64h64v-64h64v-64v-64v-64v-64v-64v-64v-64h-64v-64h-64h-64h-64v-64h-64zM192 128h64v64v64v64v64v64h-64v-64h-64v-64v-64v-64v-64h64z" />
    <glyph glyph-name="c" unicode="c" 
d="M320 384v64h-64h-64v-64h-64v-64v-64v-64h64v-64h64h64v64h64v-64v-64h-64v-64h-64h-64h-64h-64v64h-64v64v64v64v64v64v64v64h64v64h64h64h64h64v-64h64v-64v-64h-64z" />
    <glyph glyph-name="d" unicode="d" 
d="M320 -64h-64v64h-64h-64h-64v64h-64v64v64v64v64v64v64v64h64v64h64h64v-64h64v64v64v64v64h64h64v-64v-64v-64v-64v-64v-64v-64v-64v-64v-64v-64v-64v-64h-64zM192 128h64v64v64v64v64h-64v64h-64v-64v-64v-64v-64v-64h64z" />
    <glyph glyph-name="e" unicode="e" 
d="M256 0h-64h-64h-64v64h-64v64v64v64v64v64v64v64h64v64h64h64h64h64v-64h64v-64v-64v-64v-64h-64v-64h-64h-64h-64v-64h64h64h64v64h64v-64v-64h-64v-64h-64zM192 320h64v64h64v64h-64h-64v-64h-64v-64h64z" />
    <glyph glyph-name="f" unicode="f" 
d="M256 384v64h-64h-64v-64v-64v-64v-64v-64v-64v-64v-64h-64h-64v64v64v64v64v64v64v64v64v64v64v64v64h64v64h64h64h64h64v-64h64v-64v-64h-64v64h-64h-64h-64v-64h64h64v-64h64v-64v-64h-64z" />
    <glyph glyph-name="g" unicode="g" 
d="M256 -192h-64h-64h-64v64h-64v64v64h64v64h-64v64v64v64v64v64v64v64h64v64h64h64h64h64v-64h64v-64v-64v-64v-64v-64v-64v-64v-64v-64v-64h-64v-64h-64zM192 -64h64v64h-64h-64h-64v-64h64h64zM256 128v64v64v64v64v64h-64v-64h-64v-64v-64v-64h64v-64h64z" />
    <glyph glyph-name="h" unicode="h" 
d="M64 -64h-64v64v64v64v64v64v64v64v64v64v64v64v64v64h64h64v-64v-64v-64h64h64h64v-64h64v-64v-64v-64v-64v-64v-64v-64h-64v-64h-64h-64v64h64v64v64v64v64v64h-64v64h-64v-64v-64v-64v-64v-64v-64v-64v-64h-64z" />
    <glyph glyph-name="i" unicode="i" horiz-adv-x="192" 
d="M64 -64v64h-64v64v64v64v64v64v64v64v64v64h64v-64h64v-64v-64v-64v-64v-64v-64v-64v-64v-64h-64zM64 576v64h-64v64v64h64v-64h64v-64v-64h-64z" />
    <glyph glyph-name="j" unicode="j" horiz-adv-x="384" 
d="M192 -192h-64h-64v64h-64v64v64h64v-64h64v64h64v64v64v64v64v64v64v64v64v64h64v-64h64v-64v-64v-64v-64v-64v-64v-64v-64v-64v-64h-64v-64h-64zM256 576v64h-64v64v64h64v-64h64v-64v-64h-64z" />
    <glyph glyph-name="k" unicode="k" 
d="M64 -64h-64v64v64v64v64v64v64v64v64v64v64v64v64v64h64h64v-64v-64v-64h64v64h64v64v64h64h64v-64v-64v-64h-64v-64h64v-64v-64v-64v-64v-64v-64v-64h-64v-64h-64h-64v64h64v64v64v64v64v64h-64v64h-64v-64v-64v-64v-64v-64v-64v-64v-64h-64z" />
    <glyph glyph-name="l" unicode="l" horiz-adv-x="192" 
d="M64 -64h-64v64v64v64v64v64v64v64v64v64v64v64v64v64h64h64v-64v-64v-64v-64v-64v-64v-64v-64v-64v-64v-64v-64v-64h-64z" />
    <glyph glyph-name="m" unicode="m" horiz-adv-x="704" 
d="M64 -64h-64v64v64v64v64v64v64v64v64v64h64v64h64h64h64h64v-64h64v64h64h64h64v-64h64v-64v-64v-64v-64v-64v-64v-64h-64v-64h-64h-64v64h64v64v64v64v64v64h-64v64h-64v-64v-64v-64v-64v-64v-64h-64v-64h-64h-64v64h64v64v64v64v64v64h-64v64h-64v-64v-64v-64v-64v-64
v-64v-64v-64h-64z" />
    <glyph glyph-name="n" unicode="n" horiz-adv-x="512" 
d="M320 0h-64v64h64v64v64v64v64v64h-64v64h-64h-64v-64v-64v-64v-64v-64v-64v-64h-64h-64v64v64v64v64v64v64v64v64h64v64h64h64h64h64h64v-64h64v-64v-64v-64v-64v-64v-64v-64h-64v-64h-64z" />
    <glyph glyph-name="o" unicode="o" 
d="M256 0h-64h-64h-64v64h-64v64v64v64v64v64v64v64h64v64h64h64h64h64v-64h64v-64v-64v-64v-64v-64v-64v-64h-64v-64h-64zM256 128v64v64v64v64h-64v64h-64v-64v-64v-64v-64h64v-64h64z" />
    <glyph glyph-name="p" unicode="p" 
d="M128 -192h-64v64h-64v64v64v64v64v64v64v64v64v64v64h64v64h64h64h64v-64h64v-64h64v-64v-64v-64v-64v-64v-64h-64v-64h-64h-64h-64v-64v-64h64v-64h-64zM192 128h64v64v64v64v64h-64v64h-64v-64v-64v-64v-64v-64h64z" />
    <glyph glyph-name="q" unicode="q" 
d="M256 -192h-64v64h64v64v64h-64h-64h-64v64h-64v64v64v64v64v64v64h64v64h64v64h64h64h64v-64h64v-64v-64v-64v-64v-64v-64v-64v-64v-64v-64h-64v-64h-64zM192 128h64v64v64v64v64v64h-64v-64h-64v-64v-64v-64v-64h64z" />
    <glyph glyph-name="r" unicode="r" horiz-adv-x="384" 
d="M256 384v64h-64v-64h-64v-64v-64v-64v-64v-64v-64h-64h-64v64v64v64v64v64v64v64v64h64v64h64h64h64v-64h64v-64v-64h-64z" />
    <glyph glyph-name="s" unicode="s" 
d="M256 0h-64h-64h-64v64h-64v64v64h64v64h-64v64v64v64v64h64v64h64h64h64h64v-64h64v-64v-64h-64v64h-64h-64h-64v-64h64h64h64v-64h64v-64v-64v-64v-64h-64v-64h-64zM192 128h64v64h-64h-64h-64v-64h64h64z" />
    <glyph glyph-name="t" unicode="t" horiz-adv-x="384" 
d="M256 384v64h-64h-64v-64v-64v-64v-64v-64v-64v-64v-64h-64h-64v64v64v64v64v64v64v64v64v64v64v64v64v64h64h64v-64v-64v-64h64h64v-64h64v-64v-64h-64z" />
    <glyph glyph-name="u" unicode="u" horiz-adv-x="512" 
d="M320 0h-64h-64h-64h-64v64h-64v64v64v64v64v64v64v64h64v64h64h64v-64v-64h-64v-64v-64v-64v-64v-64h64h64h64v64v64v64v64v64h-64v64v64h64h64v-64h64v-64v-64v-64v-64v-64v-64v-64h-64v-64h-64z" />
    <glyph glyph-name="v" unicode="v" 
d="M192 0h-64v64h-64v64h-64v64v64v64v64v64v64v64h64h64v-64v-64v-64v-64v-64v-64h64h64v64v64v64v64v64v64h64v-64h64v-64v-64v-64v-64v-64v-64h-64v-64h-64v-64h-64z" />
    <glyph glyph-name="w" unicode="w" horiz-adv-x="704" 
d="M448 0h-64h-64h-64h-64h-64v64h-64v64h-64v64v64v64v64v64v64v64h64h64v-64v-64v-64v-64v-64v-64h64h64v64v64v64v64v64v64h64v-64h64v-64v-64v-64v-64v-64h64h64v64v64v64v64v64v64h64v-64h64v-64v-64v-64v-64v-64v-64h-64v-64h-64v-64h-64z" />
    <glyph glyph-name="x" unicode="x" 
d="M128 -64h-64v64h-64v64v64v64v64v64h64v64h-64v64v64v64h64h64v-64v-64h64v-64h64v64v64v64h-64v64h64h64v-64h64v-64v-64v-64h-64v-64h64v-64v-64v-64v-64v-64h-64h-64v64v64v64h-64v64h-64v-64v-64v-64v-64h64v-64h-64z" />
    <glyph glyph-name="y" unicode="y" horiz-adv-x="512" 
d="M320 -192h-64h-64h-64h-64v64h-64v64v64h64v64h-64v64v64v64v64v64v64v64h64v64h64h64v-64v-64h-64v-64v-64v-64v-64v-64h64h64h64v64v64v64v64v64h-64v64v64h64h64v-64h64v-64v-64v-64v-64v-64v-64v-64v-64v-64v-64h-64v-64h-64zM256 -64h64v64h-64h-64h-64h-64v-64h64
h64h64z" />
    <glyph glyph-name="z" unicode="z" 
d="M320 0h-64h-64h-64h-64h-64v64v64v64h64v64h64v64h64v64h64v64h-64h-64h-64h-64v64v64h64h64h64h64h64v-64h64v-64v-64v-64h-64v-64h-64v-64h-64v-64h64h64h64v-64v-64h-64z" />
    <glyph glyph-name="braceleft" unicode="{" horiz-adv-x="384" 
d="M256 0h-64v64h-64v64h-64v64v64v64h-64v64v64h64v64v64v64h64v64h64v64h64h64v-64v-64h-64v-64v-64v-64v-64v-64v-64v-64v-64h64v-64v-64h-64z" />
    <glyph glyph-name="bar" unicode="|" horiz-adv-x="256" 
d="M64 0v64h-64v64v64v64v64v64v64v64v64v64v64h64v64h64v-64h64v-64v-64v-64v-64v-64v-64v-64v-64v-64v-64h-64v-64h-64z" />
    <glyph glyph-name="braceright" unicode="}" horiz-adv-x="384" 
d="M64 0h-64v64v64h64v64v64v64v64v64v64v64v64h-64v64v64h64h64v-64h64v-64h64v-64v-64v-64h64v-64v-64h-64v-64v-64v-64h-64v-64h-64v-64h-64z" />
    <glyph glyph-name="asciitilde" unicode="~" horiz-adv-x="512" 
d="M0 256v64v64v64v64h64v64h64h64v-64h64v-64h64h64v64h64v-64v-64v-64v-64h-64v-64h-64h-64v64h-64v64h-64h-64v-64h-64z" />
    <glyph glyph-name="uni00A0" unicode="&#xa0;" horiz-adv-x="320" 
 />
    <glyph glyph-name="paragraph" unicode="&#xb6;" horiz-adv-x="896" 
d="M768 0h-64h-64h-64h-64h-64h-64h-64h-64v64h-64v64v64h64v-64h64h64h64h64v64v64v64v64v64v64v64h-64v64h-64h-64v-64h-64v-64v-64h64v-64h64h64v-64h-64h-64h-64h-64h-64h-64v64h-64v64v64v64v64v64h64v64h64h64h64h64h64h64h64h64h64h64h64h64v-64h-64v-64v-64v-64v-64
v-64v-64v-64v-64v-64v-64h64v-64h-64z" />
  </font>
</defs>
</svg>
